<?xml version="1.0" standalone="no"?> <!DOCTYPE svg PUBLIC "-//W3C//DTD SVG 1.0//EN" "http://www.w3.org/TR/2001/REC-SVG-20010904/DTD/svg10.dtd" > <svg xmlns="http://www.w3.org/2000/svg" width="100%" height="100%">
<defs >
<font id="novecentowidebookwebfont" horiz-adv-x="1214" ><font-face
    font-family="Novecentowide-Book"
    units-per-em="2048"
    panose-1="0 0 4 5 0 0 0 0 0 0"
    ascent="1896"
    descent="-532"
    alphabetic="0" />
<missing-glyph horiz-adv-x="748" d="M68 0V1365H612V0H68ZM136 68H544V1297H136V68Z" />
<glyph unicode=" " glyph-name="space" horiz-adv-x="512" />
<glyph unicode="!" glyph-name="exclam" horiz-adv-x="518" d="M201 0V322H317V0H201ZM201 475V1434H317V475H201Z" />
<glyph unicode="&quot;" glyph-name="quotedbl" horiz-adv-x="796" d="M201 989V1434H317V989H201ZM479 989V1434H598V989H479Z" />
<glyph unicode="#" glyph-name="numbersign" horiz-adv-x="1714" d="M61 395L113 494H367L608 967H352L403 1065H659L848 1434H961L774 1065H1270L1458 1434H1569L1382 1065H1659L1608 967H1331L1092 494H1368L1317 395H1042L842 0H725L928 395H434L233 0H115L317
395H61ZM483 494H977L1219 967H723L483 494Z" />
<glyph unicode="$" glyph-name="dollar" horiz-adv-x="1210" d="M82 391L195 422Q208 276 319 178T614 80Q790 80 895 164T1001 379Q1001 422 988 459T957 524T904 576T843 617T767 650T690 676T607 699T530 721Q366 768 292 809Q113 906 113 1083Q113 1237 233
1341T543 1460V1618H657V1460Q830 1445 951 1343T1102 1081L987 1051Q964 1192 858 1274T598 1356Q437 1356 335 1284T233 1087Q233 961 392 886Q464 853 641 805Q685 793 710 786T781 763T855 735T924 701T989 659T1042 607T1087 545T1113 470T1124 381Q1124 212
996 99T657 -27V-184H543V-27Q348 -7 226 108T82 391Z" />
<glyph unicode="%" glyph-name="percent" horiz-adv-x="1832" d="M31 855T31 1032T132 1329T401 1450Q567 1450 669 1330T772 1032T670 735T401 614Q234 614 133 734ZM125 1168T125 1032T201 802T401 707T600 801T676 1032T601 1263T401 1358T201 1263ZM387 0L1352
1434H1444L481 0H387ZM1061 399Q1061 576 1163 697T1432 819Q1598 819 1700 698T1802 399Q1802 223 1700 104T1432 -16Q1321 -16 1236 40T1106 190T1061 399ZM1155 399Q1155 264 1231 170T1432 76T1631 170T1706 399Q1706 537 1631 632T1432 727T1232 632T1155
399Z" />
<glyph unicode="&amp;" glyph-name="ampersand" horiz-adv-x="1452" d="M94 393Q94 470 120 534T191 641T293 710T414 743V745Q364 752 316 775T226 837T157 936T131 1067Q131 1122 145 1175T194 1281T279 1373T409 1437T588 1462Q779 1462 912 1356T1081 1051L975
1020Q904 1358 588 1358Q510 1358 449 1338T352 1286T293 1214T261 1138T252 1067Q252 947 345 870T608 793H1405V692H1135V512Q1135 250 1009 111T604 -29Q378 -29 236 88T94 393ZM211 393Q211 253 321 166T604 78Q722 78 804 107T933 196T1000 332T1020 516V692H604Q489
692 403 661T264 562T211 393Z" />
<glyph unicode="&apos;" glyph-name="quotesingle" horiz-adv-x="518" d="M201 989V1434H317V989H201Z" />
<glyph unicode="(" glyph-name="parenleft" horiz-adv-x="716" d="M96 719Q96 1553 606 1737L645 1628Q428 1551 321 1333T213 719Q213 322 320 103T645 -193L606 -299Q96 -118 96 719Z" />
<glyph unicode=")" glyph-name="parenright" horiz-adv-x="722" d="M78 -193L117 -299Q627 -118 627 719Q627 1553 117 1737L78 1628Q295 1551 402 1333T510 719Q510 322 403 103T78 -193Z" />
<glyph unicode="*" glyph-name="asterisk" horiz-adv-x="1079" d="M201 1153L227 1235L496 1147V1434H584L580 1147L852 1235L879 1153L606 1071L778 836L709 784L539 1026L373 784L303 836L473 1071L201 1153Z" />
<glyph unicode="+" glyph-name="plus" horiz-adv-x="1429" d="M240 678V780H659V1192H772V780H1192V678H772V258H659V678H240Z" />
<glyph unicode="," glyph-name="comma" horiz-adv-x="415" d="M98 -272Q143 -226 173 -163T203 -37L221 -27L203 -25Q173 -27 147 -4T121 57T147 117T211 141Q247 141 272 112T297 37Q297 -49 257 -130T158 -272H98Z" />
<glyph unicode="-" glyph-name="hyphen" horiz-adv-x="1353" d="M201 678V780H1153V678H201Z" />
<glyph unicode="." glyph-name="period" horiz-adv-x="415" d="M123 22T123 57T148 116T207 141Q244 141 268 117T293 57Q293 21 268 -4T207 -29Q172 -29 148 -4Z" />
<glyph unicode="/" glyph-name="slash" horiz-adv-x="942" d="M47 0L780 1434H893L166 0H47Z" />
<glyph unicode="0" glyph-name="zero" horiz-adv-x="1470" d="M94 717Q94 866 137 999T260 1236T462 1401T735 1462T1007 1401T1210 1237T1332 1000T1376 717Q1376 599 1349 489T1268 285T1138 121T959 11T735 -29T512 11T332 121T202 285T121 489T94 717ZM215
844T215 717T248 478T345 278T508 138T735 86Q860 86 960 137T1124 277T1221 478T1255 717T1222 956T1125 1157T961 1296T735 1348Q609 1348 509 1297T345 1157T249 956Z" />
<glyph unicode="1" glyph-name="one" horiz-adv-x="808" d="M94 1008L524 1434H608V0H492V1051Q492 1095 494 1149T497 1234T498 1264H496Q495 1264 475 1242T428 1190T387 1147L170 934L94 1008Z" />
<glyph unicode="2" glyph-name="two" horiz-adv-x="1153" d="M88 1085Q143 1275 277 1368T604 1462Q813 1462 946 1337T1079 1018Q1079 975 1072 934T1056 858T1026 788T991 727T947 670T900 619T848 570T797 528T744 485T694 446L262 109L264 106H270Q275 107
286 107T311 109T346 110T389 111T441 112T502 113H1079V0H98V96Q156 145 770 651Q855 721 908 815T961 1016Q961 1165 860 1259T602 1354Q444 1354 341 1277T199 1057L88 1085Z" />
<glyph unicode="3" glyph-name="three" horiz-adv-x="1212" d="M94 383L203 414Q225 263 340 172T623 80Q805 80 901 175T997 416Q997 553 895 623T612 694H485V795H614Q981 795 981 1081Q981 1128 962 1173T903 1260T790 1328T618 1354Q308 1354 233 1053L127
1081Q165 1259 296 1360T623 1462Q747 1462 843 1429T993 1340T1075 1220T1102 1085Q1102 941 1007 848T780 748V745Q920 739 1019 651T1118 412Q1118 280 1054 179T878 25T625 -29Q423 -29 274 84T94 383Z" />
<glyph unicode="4" glyph-name="four" horiz-adv-x="1269" d="M94 389V473L899 1434H991V496H1196V389H991V0H877V389H94ZM236 496L238 494Q239 494 341 495T492 496H877V963Q877 998 877 1033T878 1097T879 1153T880 1200T881 1234T882 1258L883 1266H881Q880
1266 860 1238T799 1158T721 1061L375 651Q326 594 291 555T246 506L236 496Z" />
<glyph unicode="5" glyph-name="five" horiz-adv-x="1183" d="M88 375L197 406Q227 256 334 167T610 78Q775 78 883 186T991 457Q991 621 883 728T610 836Q339 836 250 635L147 664L272 1434H1024V1321H362L315 1049Q307 1003 299 960T285 887T273 834T265 800L262
788L264 786Q304 841 397 888T610 936Q826 936 968 801T1110 457T969 110T612 -29Q402 -29 263 83T88 375Z" />
<glyph unicode="6" glyph-name="six" horiz-adv-x="1208" d="M94 467Q94 594 136 702T276 940L653 1434H786L307 805L309 803Q425 946 637 946Q859 946 1001 808T1143 461Q1143 249 994 110T618 -29Q390 -29 242 111T94 467ZM213 467Q213 293 326 186T621 78Q802
78 914 185T1028 467Q1031 636 919 740T621 844Q438 844 326 740T213 467Z" />
<glyph unicode="7" glyph-name="seven" horiz-adv-x="1124" d="M72 1321V1434H1073V1356L309 0H182L829 1147Q851 1188 879 1231T925 1299L942 1323L940 1325L928 1324Q915 1324 895 1324T851 1323T799 1322T748 1321H72Z" />
<glyph unicode="8" glyph-name="eight" horiz-adv-x="1251" d="M94 391Q94 497 147 580T282 709T457 762V764Q420 766 372 787T275 847T192 948T158 1087Q158 1245 288 1353T625 1462Q832 1462 963 1354T1094 1087Q1094 1012 1060 949T977 847T879 788T795 764V762Q941
749 1049 649T1157 391Q1157 204 1010 89T625 -29Q387 -27 241 88T94 391ZM209 393Q209 245 321 159T625 72Q818 72 930 158T1042 393Q1042 537 931 619T625 702Q432 702 321 619T209 393ZM264 1085Q264 964 365 889T625 815Q785 817 885 892T985 1085Q985 1210
885 1289T625 1368Q467 1368 366 1288T264 1085Z" />
<glyph unicode="9" glyph-name="nine" horiz-adv-x="1222" d="M66 967Q66 1189 216 1325T598 1462Q710 1462 806 1430T974 1336T1087 1179T1128 965Q1128 828 1062 693T836 369L518 0H381L918 629L915 631Q854 561 768 523T584 485Q346 485 206 621T66 967ZM180
965Q180 870 214 796T308 678T440 611T594 588Q774 588 892 688T1010 965Q1010 1065 976 1141T884 1263T752 1331T594 1354Q512 1354 439 1331T308 1261T215 1139T180 965Z" />
<glyph unicode=":" glyph-name="colon" horiz-adv-x="415" d="M123 22T123 57T148 116T207 141Q244 141 268 117T293 57Q293 21 268 -4T207 -29Q172 -29 148 -4ZM123 705Q123 740 148 764T207 788Q244 788 268 764T293 705Q293 668 268 643T207 618T148 643T123 705Z" />
<glyph unicode=";" glyph-name="semicolon" horiz-adv-x="444" d="M123 -279Q167 -233 197 -170T227 -43L246 -33L227 -31Q197 -33 171 -10T145 51T171 111T236 135Q272 135 297 106T322 31Q322 -55 282 -137T182 -279H123ZM143 705Q143 740 168 764T227 788Q264
788 288 764T313 705Q313 668 288 643T227 618T168 643T143 705Z" />
<glyph unicode="&lt;" glyph-name="less" horiz-adv-x="1429" d="M227 752L1010 252H1182L403 752L1182 1251H1010L227 752Z" />
<glyph unicode="=" glyph-name="equal" horiz-adv-x="1429" d="M240 498V600H1192V498H240ZM240 850V952H1192V850H240Z" />
<glyph unicode="&gt;" glyph-name="greater" horiz-adv-x="1429" d="M248 252L1026 752L248 1251H420L1202 752L420 252H248Z" />
<glyph unicode="?" glyph-name="question" horiz-adv-x="1165" d="M94 1081Q135 1262 268 1362T598 1462Q723 1462 817 1429T965 1338T1045 1212T1071 1067Q1071 995 1043 932T974 823T868 736T747 668T616 612V475H496V666Q748 769 848 856T948 1065Q948 1106
938 1144T903 1221T840 1289T739 1336T596 1354Q427 1354 331 1277T197 1053L94 1081ZM496 0V322H616V0H496Z" />
<glyph unicode="@" glyph-name="at" horiz-adv-x="1624" d="M94 725Q94 850 128 963T227 1167T379 1323T578 1426T811 1462Q1016 1462 1180 1367T1437 1102T1530 725Q1530 611 1498 519T1404 372T1257 317Q1177 317 1123 367T1063 506L1061 508Q1030 426 950 373T778
319Q617 319 513 429T408 711Q408 896 510 1013T780 1130Q844 1130 899 1112T985 1068T1033 1020T1051 987H1053V1092H1141V528Q1141 467 1175 429T1262 391Q1348 391 1398 484T1448 725Q1448 866 1400 988T1267 1197T1064 1334T811 1384T558 1335T356 1198T224
989T176 725Q176 537 258 381T486 135T811 45Q902 45 978 60T1101 96T1179 138T1226 175T1243 190L1309 154Q1304 146 1288 130T1230 85T1135 32T996 -10T811 -29Q659 -29 525 30T297 189T149 429T94 725ZM506 711Q506 576 585 494T786 412Q905 412 979 494T1053
717V821Q1053 923 976 980T786 1038Q659 1038 583 950T506 711Z" />
<glyph unicode="A" glyph-name="A" horiz-adv-x="1472" d="M47 0L684 1434H788L1425 0H1296L1114 418H358L176 0H47ZM406 522H1067L803 1126Q790 1157 774 1200T748 1267T737 1292H735Q734 1292 725 1268T700 1200T670 1126L406 522Z" />
<glyph unicode="B" glyph-name="B" horiz-adv-x="1316" d="M201 0V1434H713Q897 1434 1009 1339T1122 1087Q1122 981 1043 895T868 793V791Q922 786 982 758T1096 684T1185 569T1221 420Q1221 230 1096 115T758 0H201ZM317 104H754Q904 104 1001 189T1098 418Q1098
551 993 640T739 729H317V104ZM317 827H692Q829 827 916 901T1004 1079Q1004 1193 919 1261T692 1329H317V827Z" />
<glyph unicode="C" glyph-name="C" horiz-adv-x="1562" d="M94 558T94 717T152 1015T311 1252T548 1406T838 1462Q1046 1462 1218 1361T1489 1087L1370 1057Q1290 1192 1148 1270T838 1348Q663 1348 521 1270T297 1047T215 717Q215 534 298 390T523 167T838 88Q1019
88 1167 178T1393 420L1509 387Q1419 195 1240 83T838 -29Q685 -29 548 27T311 181T153 418Z" />
<glyph unicode="D" glyph-name="D" horiz-adv-x="1632" d="M201 0V1434H797Q949 1434 1085 1381T1321 1233T1479 1003T1538 709Q1538 554 1481 421T1325 196T1094 52T813 0H201ZM317 113H813Q977 113 1113 183T1333 391T1417 709Q1417 847 1368 963T1235 1157T1037
1278T797 1321H317V113Z" />
<glyph unicode="E" glyph-name="E" horiz-adv-x="1267" d="M201 0V1434H1133V1321H317V821H975V713H317V113H1145V0H201Z" />
<glyph unicode="F" glyph-name="F" horiz-adv-x="1181" d="M201 0V1434H1112V1321H317V780H954V672H317V0H201Z" />
<glyph unicode="G" glyph-name="G" horiz-adv-x="1630" d="M94 558T94 717T152 1015T311 1252T548 1406T838 1462Q1058 1456 1225 1357T1489 1087L1370 1057Q1290 1192 1148 1270T838 1348Q663 1348 521 1270T297 1047T215 717Q215 580 263 462T396 261T595 133T840
86Q945 86 1043 115T1211 192T1330 291T1401 393V621H948V723H1507V-4H1401Q1401 35 1401 69T1401 127T1402 171T1402 203T1402 224T1403 236V240H1401Q1378 210 1349 180T1266 111T1154 42T1012 -8T838 -29Q685 -29 548 27T311 181T153 418Z" />
<glyph unicode="H" glyph-name="H" horiz-adv-x="1488" d="M201 0V1434H317V805H1169V1434H1288V0H1169V692H317V0H201Z" />
<glyph unicode="I" glyph-name="I" horiz-adv-x="518" d="M201 0V1434H317V0H201Z" />
<glyph unicode="J" glyph-name="J" horiz-adv-x="1327" d="M31 342L150 373Q194 238 312 160T584 82Q812 82 931 211T1051 573V1434H1171V582Q1171 294 1019 132T584 -31Q385 -31 236 72T31 342Z" />
<glyph unicode="K" glyph-name="K" horiz-adv-x="1386" d="M201 0V1434H317V1008Q317 914 316 816T315 695T315 653H317Q318 653 358 694T464 802T571 909L1096 1434H1243L664 854L1296 0H1157L582 772L317 508V0H201Z" />
<glyph unicode="L" glyph-name="L" horiz-adv-x="1153" d="M201 0V1434H317V113H1112V0H201Z" />
<glyph unicode="M" glyph-name="M" horiz-adv-x="1693" d="M201 0V1434H311L690 780Q747 684 786 613T836 520L846 498H848L858 520Q869 541 908 612T1004 780L1382 1434H1493V0H1376V727Q1376 808 1378 936T1383 1148Q1384 1204 1384 1222Q1384 1222 1384 1231H1382Q1381
1231 1260 1014L879 352H815L434 1014Q313 1231 311 1231H309Q309 1231 309 1222Q309 1204 310 1148Q312 1064 314 936T317 727V0H201Z" />
<glyph unicode="N" glyph-name="N" horiz-adv-x="1542" d="M201 0V1434H311L1040 453L1229 199H1231Q1232 199 1231 246T1227 387T1225 563V1434H1343V0H1233L502 985Q450 1057 402 1124T335 1218T315 1245H313Q312 1245 313 1198T315 1055T317 872V0H201Z" />
<glyph unicode="O" glyph-name="O" horiz-adv-x="1677" d="M94 558T94 717T152 1015T311 1252T548 1406T838 1462T1128 1406T1365 1252T1524 1015T1583 717Q1583 505 1483 334T1213 67T838 -29Q685 -29 548 27T311 181T153 418ZM215 717Q215 580 263 462T395 261T593
133T838 86Q1011 86 1153 165T1378 389T1462 717Q1462 901 1379 1046T1153 1270T838 1348Q708 1348 594 1302T396 1175T264 975T215 717Z" />
<glyph unicode="P" glyph-name="P" horiz-adv-x="1196" d="M201 0V1434H608Q855 1434 995 1315T1135 985Q1135 775 995 656T608 537H317V0H201ZM317 649H608Q802 649 908 738T1014 985Q1014 1147 906 1234T608 1321H317V649Z" />
<glyph unicode="Q" glyph-name="Q" horiz-adv-x="1677" d="M94 717Q94 876 152 1015T311 1252T548 1406T838 1462T1128 1406T1365 1252T1524 1015T1583 717Q1583 566 1530 432T1384 201T1166 44T897 -27V-270H776V-27Q634 -15 509 45T292 202T147 432T94 717ZM215
717Q215 580 263 462T395 261T593 133T838 86Q1011 86 1153 165T1378 389T1462 717Q1462 901 1379 1046T1153 1270T838 1348Q708 1348 594 1302T396 1175T264 975T215 717Z" />
<glyph unicode="R" glyph-name="R" horiz-adv-x="1277" d="M201 0V1434H608Q853 1434 994 1315T1135 991Q1135 836 1054 731T823 582L1180 0H1047L705 559Q659 553 608 553H317V0H201ZM317 657H614Q805 657 909 748T1014 991Q1014 1148 907 1234T614 1321H317V657Z" />
<glyph unicode="S" glyph-name="S" horiz-adv-x="1210" d="M82 391L195 422Q208 276 319 178T614 80Q790 80 895 164T1001 379Q1001 422 988 459T957 524T904 576T843 617T767 650T690 676T607 699T530 721Q366 768 292 809Q113 906 113 1083Q113 1250 251 1356T602
1462Q795 1462 932 1358T1102 1081L987 1051Q964 1192 858 1274T598 1356Q437 1356 335 1284T233 1087Q233 961 392 886Q464 853 641 805Q685 793 710 786T781 763T855 735T924 701T989 659T1042 607T1087 545T1113 470T1124 381Q1124 202 982 87T610 -29Q386 -29
246 89T82 391Z" />
<glyph unicode="T" glyph-name="T" horiz-adv-x="1206" d="M53 1321V1434H1153V1321H662V0H543V1321H53Z" />
<glyph unicode="U" glyph-name="U" horiz-adv-x="1466" d="M158 582V1434H274V578Q274 331 389 207T733 82Q1190 82 1190 578V1434H1309V582Q1309 285 1161 127T733 -31Q452 -31 305 126T158 582Z" />
<glyph unicode="V" glyph-name="V" horiz-adv-x="1468" d="M47 1434H174L651 342Q667 305 687 253T720 168T733 135H735Q736 135 748 167T782 253T817 342L1294 1434H1421L793 0H678L47 1434Z" />
<glyph unicode="W" glyph-name="W" horiz-adv-x="1966" d="M57 1434H178L543 385Q560 333 575 281T596 206T604 182H606Q607 182 612 205T632 280T664 385L934 1225H1032L1303 385Q1320 332 1334 281T1353 206T1360 182H1362Q1363 182 1369 205T1391 281T1425
385L1788 1434H1909L1411 0H1313L1067 780Q1036 875 1016 948T990 1046L985 1069H983Q982 1069 976 1046T950 948T899 780L655 0H555L57 1434Z" />
<glyph unicode="X" glyph-name="X" horiz-adv-x="1355" d="M37 0L604 748L84 1434H229L586 965Q595 950 617 917T658 858T678 831H680Q681 831 698 856T740 917T772 965L1126 1434H1272L754 748L1321 0H1176L772 524Q753 549 731 582T695 636T680 657H678Q677
657 664 637T627 583T586 524L182 0H37Z" />
<glyph unicode="Y" glyph-name="Y" horiz-adv-x="1304" d="M37 1434H174L561 942Q652 825 653 825H655Q656 825 670 843T707 893T745 942L1130 1434H1268L711 723V0H594V723L37 1434Z" />
<glyph unicode="Z" glyph-name="Z" horiz-adv-x="1400" d="M123 0V109L1034 1217Q1051 1237 1076 1263T1118 1306T1135 1323L1133 1325L1125 1324Q1117 1324 1102 1324T1067 1323T1018 1322T958 1321H143V1434H1278V1325L375 221Q350 190 325 163T287 123T274
109L276 106H285Q294 107 310 108T347 111T396 112T451 113H1278V0H123Z" />
<glyph unicode="[" glyph-name="bracketleft" horiz-adv-x="665" d="M201 -307V1753H598V1640H324V-197H598V-307H201Z" />
<glyph unicode="\" glyph-name="backslash" horiz-adv-x="942" d="M47 1434L774 0H893L160 1434H47Z" />
<glyph unicode="]" glyph-name="bracketright" horiz-adv-x="692" d="M94 -197V-307H492V1753H94V1640H369V-197H94Z" />
<glyph unicode="^" glyph-name="asciicircum" horiz-adv-x="1357" d="M201 977L680 1458L1159 977L1092 913L680 1337L266 913L201 977Z" />
<glyph unicode="_" glyph-name="underscore" horiz-adv-x="1548" d="M201 0H1350V-92H201V0Z" />
<glyph unicode="`" glyph-name="grave" horiz-adv-x="620" d="M68 1731L115 1819L541 1589L500 1518L68 1731Z" />
<glyph unicode="a" glyph-name="a" horiz-adv-x="1472" d="M47 0L684 1434H788L1425 0H1296L1114 418H358L176 0H47ZM406 522H1067L803 1126Q790 1157 774 1200T748 1267T737 1292H735Q734 1292 725 1268T700 1200T670 1126L406 522Z" />
<glyph unicode="b" glyph-name="b" horiz-adv-x="1316" d="M201 0V1434H713Q897 1434 1009 1339T1122 1087Q1122 981 1043 895T868 793V791Q922 786 982 758T1096 684T1185 569T1221 420Q1221 230 1096 115T758 0H201ZM317 104H754Q904 104 1001 189T1098 418Q1098
551 993 640T739 729H317V104ZM317 827H692Q829 827 916 901T1004 1079Q1004 1193 919 1261T692 1329H317V827Z" />
<glyph unicode="c" glyph-name="c" horiz-adv-x="1562" d="M94 558T94 717T152 1015T311 1252T548 1406T838 1462Q1046 1462 1218 1361T1489 1087L1370 1057Q1290 1192 1148 1270T838 1348Q663 1348 521 1270T297 1047T215 717Q215 534 298 390T523 167T838 88Q1019
88 1167 178T1393 420L1509 387Q1419 195 1240 83T838 -29Q685 -29 548 27T311 181T153 418Z" />
<glyph unicode="d" glyph-name="d" horiz-adv-x="1632" d="M201 0V1434H797Q949 1434 1085 1381T1321 1233T1479 1003T1538 709Q1538 554 1481 421T1325 196T1094 52T813 0H201ZM317 113H813Q977 113 1113 183T1333 391T1417 709Q1417 847 1368 963T1235 1157T1037
1278T797 1321H317V113Z" />
<glyph unicode="e" glyph-name="e" horiz-adv-x="1267" d="M201 0V1434H1133V1321H317V821H975V713H317V113H1145V0H201Z" />
<glyph unicode="f" glyph-name="f" horiz-adv-x="1181" d="M201 0V1434H1112V1321H317V780H954V672H317V0H201Z" />
<glyph unicode="g" glyph-name="g" horiz-adv-x="1630" d="M94 558T94 717T152 1015T311 1252T548 1406T838 1462Q1058 1456 1225 1357T1489 1087L1370 1057Q1290 1192 1148 1270T838 1348Q663 1348 521 1270T297 1047T215 717Q215 580 263 462T396 261T595 133T840
86Q945 86 1043 115T1211 192T1330 291T1401 393V621H948V723H1507V-4H1401Q1401 35 1401 69T1401 127T1402 171T1402 203T1402 224T1403 236V240H1401Q1378 210 1349 180T1266 111T1154 42T1012 -8T838 -29Q685 -29 548 27T311 181T153 418Z" />
<glyph unicode="h" glyph-name="h" horiz-adv-x="1488" d="M201 0V1434H317V805H1169V1434H1288V0H1169V692H317V0H201Z" />
<glyph unicode="i" glyph-name="i" horiz-adv-x="518" d="M201 0V1434H317V0H201Z" />
<glyph unicode="j" glyph-name="j" horiz-adv-x="1327" d="M31 342L150 373Q194 238 312 160T584 82Q812 82 931 211T1051 573V1434H1171V582Q1171 294 1019 132T584 -31Q385 -31 236 72T31 342Z" />
<glyph unicode="k" glyph-name="k" horiz-adv-x="1386" d="M201 0V1434H317V1008Q317 914 316 816T315 695T315 653H317Q318 653 358 694T464 802T571 909L1096 1434H1243L664 854L1296 0H1157L582 772L317 508V0H201Z" />
<glyph unicode="l" glyph-name="l" horiz-adv-x="1153" d="M201 0V1434H317V113H1112V0H201Z" />
<glyph unicode="m" glyph-name="m" horiz-adv-x="1693" d="M201 0V1434H311L690 780Q747 684 786 613T836 520L846 498H848L858 520Q869 541 908 612T1004 780L1382 1434H1493V0H1376V727Q1376 808 1378 936T1383 1148Q1384 1204 1384 1222Q1384 1222 1384 1231H1382Q1381
1231 1260 1014L879 352H815L434 1014Q313 1231 311 1231H309Q309 1231 309 1222Q309 1204 310 1148Q312 1064 314 936T317 727V0H201Z" />
<glyph unicode="n" glyph-name="n" horiz-adv-x="1542" d="M201 0V1434H311L1040 453L1229 199H1231Q1232 199 1231 246T1227 387T1225 563V1434H1343V0H1233L502 985Q450 1057 402 1124T335 1218T315 1245H313Q312 1245 313 1198T315 1055T317 872V0H201Z" />
<glyph unicode="o" glyph-name="o" horiz-adv-x="1677" d="M94 558T94 717T152 1015T311 1252T548 1406T838 1462T1128 1406T1365 1252T1524 1015T1583 717Q1583 505 1483 334T1213 67T838 -29Q685 -29 548 27T311 181T153 418ZM215 717Q215 580 263 462T395 261T593
133T838 86Q1011 86 1153 165T1378 389T1462 717Q1462 901 1379 1046T1153 1270T838 1348Q708 1348 594 1302T396 1175T264 975T215 717Z" />
<glyph unicode="p" glyph-name="p" horiz-adv-x="1196" d="M201 0V1434H608Q855 1434 995 1315T1135 985Q1135 775 995 656T608 537H317V0H201ZM317 649H608Q802 649 908 738T1014 985Q1014 1147 906 1234T608 1321H317V649Z" />
<glyph unicode="q" glyph-name="q" horiz-adv-x="1677" d="M94 717Q94 876 152 1015T311 1252T548 1406T838 1462T1128 1406T1365 1252T1524 1015T1583 717Q1583 566 1530 432T1384 201T1166 44T897 -27V-270H776V-27Q634 -15 509 45T292 202T147 432T94 717ZM215
717Q215 580 263 462T395 261T593 133T838 86Q1011 86 1153 165T1378 389T1462 717Q1462 901 1379 1046T1153 1270T838 1348Q708 1348 594 1302T396 1175T264 975T215 717Z" />
<glyph unicode="r" glyph-name="r" horiz-adv-x="1277" d="M201 0V1434H608Q853 1434 994 1315T1135 991Q1135 836 1054 731T823 582L1180 0H1047L705 559Q659 553 608 553H317V0H201ZM317 657H614Q805 657 909 748T1014 991Q1014 1148 907 1234T614 1321H317V657Z" />
<glyph unicode="s" glyph-name="s" horiz-adv-x="1210" d="M82 391L195 422Q208 276 319 178T614 80Q790 80 895 164T1001 379Q1001 422 988 459T957 524T904 576T843 617T767 650T690 676T607 699T530 721Q366 768 292 809Q113 906 113 1083Q113 1250 251 1356T602
1462Q795 1462 932 1358T1102 1081L987 1051Q964 1192 858 1274T598 1356Q437 1356 335 1284T233 1087Q233 961 392 886Q464 853 641 805Q685 793 710 786T781 763T855 735T924 701T989 659T1042 607T1087 545T1113 470T1124 381Q1124 202 982 87T610 -29Q386 -29
246 89T82 391Z" />
<glyph unicode="t" glyph-name="t" horiz-adv-x="1206" d="M53 1321V1434H1153V1321H662V0H543V1321H53Z" />
<glyph unicode="u" glyph-name="u" horiz-adv-x="1466" d="M158 582V1434H274V578Q274 331 389 207T733 82Q1190 82 1190 578V1434H1309V582Q1309 285 1161 127T733 -31Q452 -31 305 126T158 582Z" />
<glyph unicode="v" glyph-name="v" horiz-adv-x="1468" d="M47 1434H174L651 342Q667 305 687 253T720 168T733 135H735Q736 135 748 167T782 253T817 342L1294 1434H1421L793 0H678L47 1434Z" />
<glyph unicode="w" glyph-name="w" horiz-adv-x="1966" d="M57 1434H178L543 385Q560 333 575 281T596 206T604 182H606Q607 182 612 205T632 280T664 385L934 1225H1032L1303 385Q1320 332 1334 281T1353 206T1360 182H1362Q1363 182 1369 205T1391 281T1425
385L1788 1434H1909L1411 0H1313L1067 780Q1036 875 1016 948T990 1046L985 1069H983Q982 1069 976 1046T950 948T899 780L655 0H555L57 1434Z" />
<glyph unicode="x" glyph-name="x" horiz-adv-x="1355" d="M37 0L604 748L84 1434H229L586 965Q595 950 617 917T658 858T678 831H680Q681 831 698 856T740 917T772 965L1126 1434H1272L754 748L1321 0H1176L772 524Q753 549 731 582T695 636T680 657H678Q677
657 664 637T627 583T586 524L182 0H37Z" />
<glyph unicode="y" glyph-name="y" horiz-adv-x="1304" d="M37 1434H174L561 942Q652 825 653 825H655Q656 825 670 843T707 893T745 942L1130 1434H1268L711 723V0H594V723L37 1434Z" />
<glyph unicode="z" glyph-name="z" horiz-adv-x="1400" d="M123 0V109L1034 1217Q1051 1237 1076 1263T1118 1306T1135 1323L1133 1325L1125 1324Q1117 1324 1102 1324T1067 1323T1018 1322T958 1321H143V1434H1278V1325L375 221Q350 190 325 163T287 123T274
109L276 106H285Q294 107 310 108T347 111T396 112T451 113H1278V0H123Z" />
<glyph unicode="{" glyph-name="braceleft" horiz-adv-x="763" d="M201 721Q206 723 215 727T247 752T287 805T319 898T334 1036V1309Q334 1759 727 1759V1649Q453 1649 453 1319V1047Q453 792 340 721Q349 717 358 710T386 678T418 621T442 529T453 395V123Q453
-207 727 -207V-317Q334 -317 334 133V406Q334 483 321 544T288 636T248 689T214 716L201 721Z" />
<glyph unicode="|" glyph-name="bar" horiz-adv-x="501" d="M201 -152V1587H301V-152H201Z" />
<glyph unicode="}" glyph-name="braceright" horiz-adv-x="763" d="M37 -207V-317Q430 -317 430 133V406Q430 483 443 544T476 636T516 689T550 716L563 721Q558 723 549 727T517 752T477 805T445 898T430 1036V1309Q430 1759 37 1759V1649Q311 1649 311 1319V1047Q311
792 424 721Q415 717 406 710T378 678T346 621T322 529T311 395V123Q311 -207 37 -207Z" />
<glyph unicode="~" glyph-name="asciitilde" horiz-adv-x="1429" d="M289 655Q304 746 372 798T535 850Q581 850 624 834T700 794T764 748T829 709T895 692Q960 692 999 729T1044 821L1147 793Q1135 703 1068 651T907 598Q862 598 819 614T743 654T678 700T612
739T543 756Q477 756 437 720T391 629L289 655Z" />
</font>
</defs>
</svg>
