<?xml version="1.0" standalone="no"?> <!DOCTYPE svg PUBLIC "-//W3C//DTD SVG 1.0//EN" "http://www.w3.org/TR/2001/REC-SVG-20010904/DTD/svg10.dtd" > <svg xmlns="http://www.w3.org/2000/svg" width="100%" height="100%">
<defs >
<font id="novecentowidelightwebfont" horiz-adv-x="1204" ><font-face
    font-family="Novecentowide-Light"
    units-per-em="2048"
    panose-1="0 0 4 5 0 0 0 0 0 0"
    ascent="1878"
    descent="-527"
    alphabetic="0" />
<missing-glyph horiz-adv-x="748" d="M68 0V1365H612V0H68ZM136 68H544V1297H136V68Z" />
<glyph unicode=" " glyph-name="space" horiz-adv-x="512" />
<glyph unicode="!" glyph-name="exclam" horiz-adv-x="491" d="M207 0V322H285V0H207ZM207 481V1434H285V481H207Z" />
<glyph unicode="&quot;" glyph-name="quotedbl" horiz-adv-x="720" d="M207 989V1434H289V989H207ZM432 989V1434H514V989H432Z" />
<glyph unicode="#" glyph-name="numbersign" horiz-adv-x="1679" d="M63 418L96 481H365L623 985H352L385 1049H655L852 1434H926L729 1049H1264L1460 1434H1534L1337 1049H1626L1593 985H1305L1049 481H1335L1303 418H1016L803 0H727L940 418H408L195 0H119L332
418H63ZM440 481H973L1231 985H696L440 481Z" />
<glyph unicode="$" glyph-name="dollar" horiz-adv-x="1200" d="M88 389L164 410Q173 255 290 150T604 45Q796 45 913 137T1030 375Q1030 413 1021 446T999 506T962 556T917 598T861 632T801 660T735 683T670 703T603 720T541 737Q383 781 315 813Q115 909 115
1092Q115 1250 238 1350T555 1460V1618H629V1462Q809 1453 933 1351T1085 1083L1010 1063Q987 1213 874 1301T596 1389Q419 1389 307 1310T195 1092Q195 1062 204 1035T225 986T262 944T306 909T362 879T421 855T488 833T553 814T621 795Q800 748 883 707Q1110
595 1110 375Q1110 205 978 92T629 -29V-184H555V-27Q351 -14 227 103T88 389Z" />
<glyph unicode="%" glyph-name="percent" horiz-adv-x="1837" d="M33 1030Q33 1207 134 1328T403 1450Q515 1450 601 1393T731 1240T776 1030Q776 854 674 733T403 612Q236 612 135 733T33 1030ZM104 1030Q104 884 186 782T403 680Q538 680 620 782T702 1030Q702
1178 620 1280T403 1382Q269 1382 187 1280T104 1030ZM406 0L1360 1434H1430L479 0H406ZM1063 401Q1063 515 1107 610T1237 763T1434 821Q1602 821 1704 699T1806 401Q1806 224 1705 104T1434 -16Q1267 -16 1165 104T1063 401ZM1135 401Q1135 255 1217 153T1434
51Q1569 51 1651 153T1733 401Q1733 549 1651 651T1434 754Q1300 754 1218 651T1135 401Z" />
<glyph unicode="&amp;" glyph-name="ampersand" horiz-adv-x="1452" d="M98 389Q98 545 192 637T424 745V748Q373 755 324 778T233 840T164 939T137 1073Q137 1125 150 1176T195 1279T277 1372T406 1437T584 1462Q773 1462 906 1356T1073 1049L997 1028Q926 1391
582 1391Q498 1391 432 1369T326 1313T261 1235T226 1151T217 1073Q217 946 318 863T602 780H1395V709H1122V518Q1122 248 1000 110T602 -29Q378 -29 238 86T98 389ZM176 387Q176 235 296 140T602 45Q730 45 818 77T955 173T1026 320T1047 518V709H602Q479 709
386 677T234 570T176 387Z" />
<glyph unicode="&apos;" glyph-name="quotesingle" horiz-adv-x="495" d="M207 989V1434H289V989H207Z" />
<glyph unicode="(" glyph-name="parenleft" horiz-adv-x="702" d="M100 289T100 721T222 1404T592 1745L623 1673Q477 1621 380 1508T231 1198T178 721Q178 306 290 77T623 -233L592 -301Q345 -212 223 38Z" />
<glyph unicode=")" glyph-name="parenright" horiz-adv-x="706" d="M86 -233L117 -301Q364 -212 486 38T608 721T486 1404T117 1745L86 1673Q232 1621 328 1508T477 1198T530 721T478 244T329 -66T86 -233Z" />
<glyph unicode="*" glyph-name="asterisk" horiz-adv-x="1085" d="M207 1165L227 1225L510 1133V1434H575L571 1133L858 1225L879 1165L592 1077L772 829L721 793L543 1044L367 793L315 829L494 1077L207 1165Z" />
<glyph unicode="+" glyph-name="plus" horiz-adv-x="1429" d="M238 692V764H676V1190H756V764H1194V692H756V258H676V692H238Z" />
<glyph unicode="," glyph-name="comma" horiz-adv-x="389" d="M100 -272Q197 -164 197 -39L213 -29H197Q169 -32 145 -12T121 43Q121 76 144 95T199 115Q230 115 251 90T272 23Q272 -61 236 -138T150 -272H100Z" />
<glyph unicode="-" glyph-name="hyphen" horiz-adv-x="1372" d="M207 692V764H1165V692H207Z" />
<glyph unicode="." glyph-name="period" horiz-adv-x="389" d="M123 13T123 43T144 94T195 115T245 94T266 43Q266 12 245 -8T195 -29Q165 -29 144 -8Z" />
<glyph unicode="/" glyph-name="slash" horiz-adv-x="919" d="M57 0L791 1434H864L133 0H57Z" />
<glyph unicode="0" glyph-name="zero" horiz-adv-x="1470" d="M98 717Q98 835 124 944T204 1148T333 1312T511 1422T735 1462T958 1422T1137 1312T1265 1148T1345 945T1372 717Q1372 569 1330 436T1208 198T1007 33T735 -29T464 32T262 198T141 435T98 717ZM178
823T178 717T200 513T269 330T380 182T536 83T735 47Q843 47 934 83T1091 182T1202 330T1270 513T1292 717Q1292 850 1256 969T1153 1182T977 1331T735 1386Q628 1386 537 1350T380 1251T269 1104T201 921Z" />
<glyph unicode="1" glyph-name="one" horiz-adv-x="782" d="M98 1020L518 1434H575V0H496V1114Q496 1158 498 1211T501 1292T502 1321H500Q499 1321 479 1299T431 1247T393 1206L152 969L98 1020Z" />
<glyph unicode="2" glyph-name="two" horiz-adv-x="1136" d="M84 1090Q140 1282 273 1372T596 1462Q802 1462 933 1338T1065 1022Q1065 942 1042 869T988 744T903 637T811 550T712 471Q686 452 674 442Q600 383 472 282T277 127T209 72L211 70H216Q221 71 230
71T253 72T285 73T324 74T372 75T428 76H1063V0H94V63Q208 157 437 345T782 627Q871 699 928 801T985 1020Q985 1182 875 1285T596 1389Q425 1389 313 1307T160 1069L84 1090Z" />
<glyph unicode="3" glyph-name="three" d="M98 385L170 406Q192 243 317 144T621 45Q723 45 802 74T929 155T1001 270T1026 410Q1026 561 916 636T610 711H483V782H612Q1012 782 1012 1094Q1012 1132 1001 1170T960 1249T888 1319T775 1369T618 1389Q282 1389
205 1065L131 1085Q170 1261 298 1361T618 1462Q719 1462 801 1440T936 1381T1025 1296T1076 1197T1092 1094Q1092 947 996 852T762 750V748Q830 744 891 721T1000 656T1077 551T1106 410Q1106 209 970 90T621 -29Q420 -29 274 84T98 385Z" />
<glyph unicode="4" glyph-name="four" horiz-adv-x="1255" d="M98 412V465L911 1434H969V485H1184V412H969V0H893V412H98ZM197 485L199 483Q200 483 309 484T467 485H893V1022Q893 1058 893 1093T894 1156T895 1210T896 1255T897 1288T898 1310L899 1317H897Q896
1317 876 1290T814 1209T733 1108L346 651Q293 589 255 548T207 496L197 485Z" />
<glyph unicode="5" glyph-name="five" horiz-adv-x="1167" d="M84 383L158 403Q189 237 305 141T604 45Q784 45 900 161T1016 455T900 748T604 864Q517 864 448 844T333 790T261 721T215 645L145 666L270 1434H1012V1358H330L279 1040Q267 967 253 899T231 798L223
766L225 764Q265 827 368 880T604 934Q817 934 956 799T1096 455T957 109T606 -29Q395 -29 258 83T84 383Z" />
<glyph unicode="6" glyph-name="six" d="M98 465Q98 588 137 692T268 918L662 1434H754L258 784L260 782Q385 944 623 944Q845 944 990 808T1135 463Q1135 250 988 111T616 -29Q390 -29 244 111T98 465ZM178 465Q178 276 298 161T616 45Q811 45 932 160T1057 465Q1060
647 939 759T616 872Q420 872 299 760T178 465Z" />
<glyph unicode="7" glyph-name="seven" horiz-adv-x="1114" d="M74 1358V1434H1057V1378L283 0H199L881 1212Q900 1247 923 1284T961 1340L975 1360L973 1362H961Q949 1361 929 1361T886 1360T835 1359T784 1358H74Z" />
<glyph unicode="8" glyph-name="eight" horiz-adv-x="1253" d="M98 389Q98 471 129 540T214 655T334 729T475 762V764Q446 765 408 778T326 818T246 881T186 973T162 1090Q162 1247 292 1354T627 1462T962 1355T1092 1090Q1092 1028 1068 973T1008 882T929 818T847
778T780 764V762Q877 755 960 711T1099 582T1155 389Q1155 201 1010 87T627 -29Q388 -27 243 87T98 389ZM176 389Q176 229 296 136T627 41Q836 42 956 135T1077 389Q1077 544 957 632T627 721Q416 721 296 633T176 389ZM236 1090Q236 959 345 878T627 799Q799 801
907 881T1016 1090Q1016 1224 908 1308T627 1393T346 1308T236 1090Z" />
<glyph unicode="9" glyph-name="nine" horiz-adv-x="1218" d="M70 967Q70 1189 219 1325T596 1462Q827 1462 973 1332T1120 967Q1120 828 1053 694T819 365L506 0H414L965 651L963 653Q894 573 798 530T592 487Q434 487 314 551T132 723T70 967ZM147 967Q147 863
184 783T286 655T428 583T594 559Q787 559 914 667T1042 967Q1042 1077 1006 1160T906 1292T765 1365T594 1389Q506 1389 428 1364T286 1290T185 1158T147 967Z" />
<glyph unicode=":" glyph-name="colon" horiz-adv-x="389" d="M123 13T123 43T144 94T195 115T245 94T266 43Q266 12 245 -8T195 -29Q165 -29 144 -8ZM123 668T123 698T144 749T195 770T245 749T266 698T246 648T195 627Q164 627 144 647Z" />
<glyph unicode=";" glyph-name="semicolon" horiz-adv-x="415" d="M123 -281Q219 -174 219 -47L236 -37H219Q191 -40 167 -20T143 35Q143 67 166 86T221 106Q252 106 273 81T295 14Q295 -70 259 -146T172 -281H123ZM141 668T141 698T162 749T213 770T264 749T285
698T264 648T213 627Q182 627 162 647Z" />
<glyph unicode="&lt;" glyph-name="less" horiz-adv-x="1429" d="M225 752L1051 252H1184L360 752L1184 1251H1051L225 752Z" />
<glyph unicode="=" glyph-name="equal" horiz-adv-x="1429" d="M238 528V600H1194V528H238ZM238 856V928H1194V856H238Z" />
<glyph unicode="&gt;" glyph-name="greater" horiz-adv-x="1429" d="M246 252L1069 752L246 1251H379L1204 752L379 252H246Z" />
<glyph unicode="?" glyph-name="question" horiz-adv-x="1157" d="M98 1085Q137 1265 268 1363T594 1462Q695 1462 776 1440T909 1380T995 1291T1044 1186T1059 1073Q1059 1000 1031 936T959 827T850 739T725 670T592 616V481H508V657Q767 756 872 850T977 1073Q977
1118 967 1159T929 1243T860 1316T750 1366T594 1386Q412 1386 309 1304T168 1065L98 1085ZM508 0V322H592V0H508Z" />
<glyph unicode="@" glyph-name="at" horiz-adv-x="1619" d="M98 727Q98 883 152 1019T299 1253T525 1406T809 1462Q961 1462 1093 1406T1320 1253T1468 1020T1522 727Q1522 550 1452 438T1264 326Q1185 326 1133 375T1077 518L1075 520Q1043 434 961 380T784 326Q623
326 519 435T414 713Q414 898 515 1016T784 1135Q852 1135 909 1116T999 1069T1050 1019T1069 983H1071V1094H1137V518Q1137 459 1174 421T1264 383Q1353 383 1406 478T1460 727Q1460 920 1376 1075T1142 1317T809 1405T477 1318T244 1075T160 727Q160 535 243
375T476 122T809 29Q904 29 984 45T1112 83T1193 129T1243 168T1260 184L1311 154Q1301 142 1289 130T1232 86T1135 31T996 -10T809 -29Q608 -29 445 72T190 346T98 727ZM483 713Q484 570 569 482T784 393T992 481T1071 719V844Q1071 944 989 1005T784 1067Q647
1067 565 970T483 713Z" />
<glyph unicode="A" glyph-name="A" horiz-adv-x="1472" d="M57 0L702 1434H770L1415 0H1331L1130 451H342L141 0H57ZM375 522H1098L803 1184Q790 1213 774 1253T748 1316T737 1339H735Q734 1339 725 1316T700 1253T670 1184L375 522Z" />
<glyph unicode="B" glyph-name="B" horiz-adv-x="1310" d="M207 0V1434H702Q884 1434 995 1341T1106 1094Q1106 986 1023 899T840 795V793Q894 790 956 763T1076 691T1170 573T1208 418Q1208 227 1084 114T754 0H207ZM285 72H756Q915 72 1020 164T1126 412Q1126
556 1012 653T739 750H285V72ZM285 819H688Q837 819 931 899T1026 1092Q1026 1216 934 1289T688 1362H285V819Z" />
<glyph unicode="C" glyph-name="C" horiz-adv-x="1564" d="M98 558T98 717T156 1015T315 1252T552 1406T842 1462Q1050 1462 1222 1362T1493 1090L1413 1069Q1328 1217 1177 1301T842 1386Q704 1386 582 1338T371 1203T230 990T178 717Q178 524 266 370T506 133T842
49Q1035 49 1193 145T1436 408L1513 385Q1422 193 1244 82T842 -29Q689 -29 552 27T315 181T157 418Z" />
<glyph unicode="D" glyph-name="D" horiz-adv-x="1638" d="M207 0V1434H799Q951 1434 1087 1381T1323 1233T1481 1003T1540 709Q1540 504 1442 341T1179 89T817 0H207ZM285 76H817Q947 76 1063 120T1268 244T1408 444T1460 709Q1460 902 1371 1051T1132 1279T799
1358H285V76Z" />
<glyph unicode="E" glyph-name="E" horiz-adv-x="1253" d="M207 0V1434H1120V1358H285V811H963V737H285V76H1133V0H207Z" />
<glyph unicode="F" glyph-name="F" horiz-adv-x="1169" d="M207 0V1434H1100V1358H285V772H942V696H285V0H207Z" />
<glyph unicode="G" glyph-name="G" horiz-adv-x="1632" d="M98 558T98 717T156 1015T315 1252T552 1406T842 1462Q1065 1455 1231 1357T1493 1090L1413 1069Q1328 1217 1177 1301T842 1386Q704 1386 582 1338T371 1203T230 990T178 717Q178 524 266 370T506 131T842
47Q951 47 1054 78T1231 159T1359 263T1436 369V637H969V707H1509V-4H1436Q1436 38 1436 75T1436 138T1437 186T1437 221T1437 244T1438 258V262H1436Q1414 231 1385 200T1301 125T1184 49T1031 -6T842 -29Q689 -29 552 27T315 181T157 418Z" />
<glyph unicode="H" glyph-name="H" horiz-adv-x="1478" d="M207 0V1434H285V793H1192V1434H1272V0H1192V717H285V0H207Z" />
<glyph unicode="I" glyph-name="I" horiz-adv-x="491" d="M207 0V1434H285V0H207Z" />
<glyph unicode="J" glyph-name="J" horiz-adv-x="1316" d="M33 342L113 362Q158 216 285 131T578 45Q822 45 948 181T1075 565V1434H1155V573Q1155 288 1007 129T578 -31Q380 -31 233 72T33 342Z" />
<glyph unicode="K" glyph-name="K" horiz-adv-x="1366" d="M207 0V1434H285V975Q285 881 284 781T283 655T283 610H285Q286 610 331 656T444 771T551 879L1106 1434H1204L629 858L1268 0H1174L573 803L285 514V0H207Z" />
<glyph unicode="L" glyph-name="L" horiz-adv-x="1140" d="M207 0V1434H285V76H1100V0H207Z" />
<glyph unicode="M" glyph-name="M" horiz-adv-x="1683" d="M207 0V1434H281L680 741Q738 641 778 567T829 469L840 446H842L854 469Q865 492 905 566T1004 741L1403 1434H1477V0H1399V793Q1399 861 1401 990Q1402 1118 1404 1207Q1405 1260 1405 1282V1296H1403Q1402
1296 1388 1270T1341 1186T1282 1079L862 352H821L401 1079Q373 1129 342 1186T297 1269T281 1296H279Q279 1296 279 1282Q280 1261 280 1207Q282 1118 283 990T285 793V0H207Z" />
<glyph unicode="N" glyph-name="N" horiz-adv-x="1531" d="M207 0V1434H281L1083 354Q1131 290 1175 230T1235 149T1251 129H1253Q1254 129 1253 173T1249 305T1247 469V1434H1325V0H1251L444 1087Q391 1159 350 1217T297 1294T283 1313H281Q280 1313 281 1270T283
1138T285 971V0H207Z" />
<glyph unicode="O" glyph-name="O" horiz-adv-x="1685" d="M98 558T98 717T156 1015T315 1252T552 1406T842 1462T1132 1406T1369 1252T1528 1015T1587 717Q1587 505 1487 334T1217 67T842 -29Q689 -29 552 27T315 181T157 418ZM178 717Q178 524 266 370T506 131T842
47Q952 47 1053 78T1236 169T1379 310T1473 496T1507 717Q1507 913 1418 1067T1177 1303T842 1386Q704 1386 582 1338T371 1203T230 990T178 717Z" />
<glyph unicode="P" glyph-name="P" horiz-adv-x="1171" d="M207 0V1434H592Q835 1434 972 1317T1110 993T973 670T592 553H285V0H207ZM285 627H592Q803 627 916 724T1030 993Q1030 1169 913 1263T592 1358H285V627Z" />
<glyph unicode="Q" glyph-name="Q" horiz-adv-x="1685" d="M98 717Q98 876 156 1015T315 1252T552 1406T842 1462T1132 1406T1369 1252T1528 1015T1587 717Q1587 563 1532 428T1383 195T1159 39T883 -27V-270H801V-27Q655 -20 526 38T302 194T153 427T98 717ZM178
717Q178 524 266 370T506 131T842 47Q952 47 1053 78T1236 169T1379 310T1473 496T1507 717Q1507 913 1418 1067T1177 1303T842 1386Q704 1386 582 1338T371 1203T230 990T178 717Z" />
<glyph unicode="R" glyph-name="R" horiz-adv-x="1259" d="M207 0V1434H592Q835 1434 972 1318T1110 999Q1110 842 1026 737T786 592L1155 0H1063L709 578Q654 569 592 569H285V0H207ZM285 639H592Q802 639 916 736T1030 999Q1030 1173 914 1265T592 1358H285V639Z" />
<glyph unicode="S" glyph-name="S" horiz-adv-x="1200" d="M88 389L164 410Q173 255 290 150T604 45Q796 45 913 137T1030 375Q1030 413 1021 446T999 506T962 556T917 598T861 632T801 660T735 683T670 703T603 720T541 737Q383 781 315 813Q115 909 115 1092Q115
1257 251 1359T596 1462Q788 1462 922 1360T1085 1083L1010 1063Q987 1213 874 1301T596 1389Q419 1389 307 1310T195 1092Q195 1062 204 1035T225 986T262 944T306 909T362 879T421 855T488 833T553 814T621 795Q800 748 883 707Q1110 595 1110 375Q1110 200 970
86T604 -29Q379 -29 242 90T88 389Z" />
<glyph unicode="T" glyph-name="T" horiz-adv-x="1198" d="M57 1358V1434H1141V1358H639V0H559V1358H57Z" />
<glyph unicode="U" glyph-name="U" horiz-adv-x="1454" d="M162 573V1434H240V565Q240 308 363 177T727 45Q969 45 1091 176T1214 565V1434H1294V573Q1294 278 1150 124T727 -31Q448 -31 305 123T162 573Z" />
<glyph unicode="V" glyph-name="V" horiz-adv-x="1468" d="M57 1434H139L651 289Q665 258 685 208T719 125T733 92H735Q736 92 749 125T782 208T817 289L1329 1434H1413L770 0H700L57 1434Z" />
<glyph unicode="W" glyph-name="W" horiz-adv-x="1933" d="M59 1434H139L535 319Q553 268 568 218T590 145T598 123H600Q601 123 606 145T624 217T655 319L938 1212H995L1280 319Q1296 268 1309 218T1328 145T1335 123H1337Q1338 123 1344 145T1367 218T1399 319L1796
1434H1874L1366 0H1305L1055 801Q1023 902 1002 978T974 1077L969 1100H967L961 1076Q955 1053 934 977T881 801L629 0H569L59 1434Z" />
<glyph unicode="X" glyph-name="X" horiz-adv-x="1347" d="M39 0L623 750L92 1434H190L578 932Q587 919 611 885T653 825T672 799H674Q675 799 693 825T736 885T770 932L1155 1434H1255L725 750L1309 0H1208L764 571Q744 597 722 629T687 678T674 696H672Q671
696 660 679T626 629T584 571L139 0H39Z" />
<glyph unicode="Y" glyph-name="Y" horiz-adv-x="1273" d="M39 1434H133L543 924Q558 907 581 877T620 826T637 805H639Q640 805 655 825T695 876T733 924L1141 1434H1235L676 739V0H598V739L39 1434Z" />
<glyph unicode="Z" glyph-name="Z" horiz-adv-x="1390" d="M123 0V72L1081 1255Q1097 1275 1121 1300T1162 1341T1178 1358L1176 1360H1172Q1168 1360 1162 1360T1145 1359T1121 1359T1091 1359T1053 1358T1008 1358H143V1434H1268V1362L313 180Q289 149 265 123T230
86L219 74L221 72H230Q238 73 253 73T287 74T333 75T387 76H1268V0H123Z" />
<glyph unicode="[" glyph-name="bracketleft" horiz-adv-x="643" d="M207 -307V1753H565V1677H291V-231H565V-307H207Z" />
<glyph unicode="\" glyph-name="backslash" horiz-adv-x="919" d="M57 1434L786 0H864L131 1434H57Z" />
<glyph unicode="]" glyph-name="bracketright" horiz-adv-x="671" d="M106 -231V-307H465V1753H106V1677H381V-231H106Z" />
<glyph unicode="^" glyph-name="asciicircum" horiz-adv-x="1372" d="M207 977L686 1458L1165 977L1114 926L686 1362L258 926L207 977Z" />
<glyph unicode="_" glyph-name="underscore" horiz-adv-x="1540" d="M207 0H1333V-61H207V0Z" />
<glyph unicode="`" glyph-name="grave" horiz-adv-x="614" d="M82 1737L117 1798L530 1575L500 1522L82 1737Z" />
<glyph unicode="a" glyph-name="a" horiz-adv-x="1472" d="M57 0L702 1434H770L1415 0H1331L1130 451H342L141 0H57ZM375 522H1098L803 1184Q790 1213 774 1253T748 1316T737 1339H735Q734 1339 725 1316T700 1253T670 1184L375 522Z" />
<glyph unicode="b" glyph-name="b" horiz-adv-x="1310" d="M207 0V1434H702Q884 1434 995 1341T1106 1094Q1106 986 1023 899T840 795V793Q894 790 956 763T1076 691T1170 573T1208 418Q1208 227 1084 114T754 0H207ZM285 72H756Q915 72 1020 164T1126 412Q1126
556 1012 653T739 750H285V72ZM285 819H688Q837 819 931 899T1026 1092Q1026 1216 934 1289T688 1362H285V819Z" />
<glyph unicode="c" glyph-name="c" horiz-adv-x="1564" d="M98 558T98 717T156 1015T315 1252T552 1406T842 1462Q1050 1462 1222 1362T1493 1090L1413 1069Q1328 1217 1177 1301T842 1386Q704 1386 582 1338T371 1203T230 990T178 717Q178 524 266 370T506 133T842
49Q1035 49 1193 145T1436 408L1513 385Q1422 193 1244 82T842 -29Q689 -29 552 27T315 181T157 418Z" />
<glyph unicode="d" glyph-name="d" horiz-adv-x="1638" d="M207 0V1434H799Q951 1434 1087 1381T1323 1233T1481 1003T1540 709Q1540 504 1442 341T1179 89T817 0H207ZM285 76H817Q947 76 1063 120T1268 244T1408 444T1460 709Q1460 902 1371 1051T1132 1279T799
1358H285V76Z" />
<glyph unicode="e" glyph-name="e" horiz-adv-x="1253" d="M207 0V1434H1120V1358H285V811H963V737H285V76H1133V0H207Z" />
<glyph unicode="f" glyph-name="f" horiz-adv-x="1169" d="M207 0V1434H1100V1358H285V772H942V696H285V0H207Z" />
<glyph unicode="g" glyph-name="g" horiz-adv-x="1632" d="M98 558T98 717T156 1015T315 1252T552 1406T842 1462Q1065 1455 1231 1357T1493 1090L1413 1069Q1328 1217 1177 1301T842 1386Q704 1386 582 1338T371 1203T230 990T178 717Q178 524 266 370T506 131T842
47Q951 47 1054 78T1231 159T1359 263T1436 369V637H969V707H1509V-4H1436Q1436 38 1436 75T1436 138T1437 186T1437 221T1437 244T1438 258V262H1436Q1414 231 1385 200T1301 125T1184 49T1031 -6T842 -29Q689 -29 552 27T315 181T157 418Z" />
<glyph unicode="h" glyph-name="h" horiz-adv-x="1478" d="M207 0V1434H285V793H1192V1434H1272V0H1192V717H285V0H207Z" />
<glyph unicode="i" glyph-name="i" horiz-adv-x="491" d="M207 0V1434H285V0H207Z" />
<glyph unicode="j" glyph-name="j" horiz-adv-x="1316" d="M33 342L113 362Q158 216 285 131T578 45Q822 45 948 181T1075 565V1434H1155V573Q1155 288 1007 129T578 -31Q380 -31 233 72T33 342Z" />
<glyph unicode="k" glyph-name="k" horiz-adv-x="1366" d="M207 0V1434H285V975Q285 881 284 781T283 655T283 610H285Q286 610 331 656T444 771T551 879L1106 1434H1204L629 858L1268 0H1174L573 803L285 514V0H207Z" />
<glyph unicode="l" glyph-name="l" horiz-adv-x="1140" d="M207 0V1434H285V76H1100V0H207Z" />
<glyph unicode="m" glyph-name="m" horiz-adv-x="1683" d="M207 0V1434H281L680 741Q738 641 778 567T829 469L840 446H842L854 469Q865 492 905 566T1004 741L1403 1434H1477V0H1399V793Q1399 861 1401 990Q1402 1118 1404 1207Q1405 1260 1405 1282V1296H1403Q1402
1296 1388 1270T1341 1186T1282 1079L862 352H821L401 1079Q373 1129 342 1186T297 1269T281 1296H279Q279 1296 279 1282Q280 1261 280 1207Q282 1118 283 990T285 793V0H207Z" />
<glyph unicode="n" glyph-name="n" horiz-adv-x="1531" d="M207 0V1434H281L1083 354Q1131 290 1175 230T1235 149T1251 129H1253Q1254 129 1253 173T1249 305T1247 469V1434H1325V0H1251L444 1087Q391 1159 350 1217T297 1294T283 1313H281Q280 1313 281 1270T283
1138T285 971V0H207Z" />
<glyph unicode="o" glyph-name="o" horiz-adv-x="1685" d="M98 558T98 717T156 1015T315 1252T552 1406T842 1462T1132 1406T1369 1252T1528 1015T1587 717Q1587 505 1487 334T1217 67T842 -29Q689 -29 552 27T315 181T157 418ZM178 717Q178 524 266 370T506 131T842
47Q952 47 1053 78T1236 169T1379 310T1473 496T1507 717Q1507 913 1418 1067T1177 1303T842 1386Q704 1386 582 1338T371 1203T230 990T178 717Z" />
<glyph unicode="p" glyph-name="p" horiz-adv-x="1171" d="M207 0V1434H592Q835 1434 972 1317T1110 993T973 670T592 553H285V0H207ZM285 627H592Q803 627 916 724T1030 993Q1030 1169 913 1263T592 1358H285V627Z" />
<glyph unicode="q" glyph-name="q" horiz-adv-x="1685" d="M98 717Q98 876 156 1015T315 1252T552 1406T842 1462T1132 1406T1369 1252T1528 1015T1587 717Q1587 563 1532 428T1383 195T1159 39T883 -27V-270H801V-27Q655 -20 526 38T302 194T153 427T98 717ZM178
717Q178 524 266 370T506 131T842 47Q952 47 1053 78T1236 169T1379 310T1473 496T1507 717Q1507 913 1418 1067T1177 1303T842 1386Q704 1386 582 1338T371 1203T230 990T178 717Z" />
<glyph unicode="r" glyph-name="r" horiz-adv-x="1259" d="M207 0V1434H592Q835 1434 972 1318T1110 999Q1110 842 1026 737T786 592L1155 0H1063L709 578Q654 569 592 569H285V0H207ZM285 639H592Q802 639 916 736T1030 999Q1030 1173 914 1265T592 1358H285V639Z" />
<glyph unicode="s" glyph-name="s" horiz-adv-x="1200" d="M88 389L164 410Q173 255 290 150T604 45Q796 45 913 137T1030 375Q1030 413 1021 446T999 506T962 556T917 598T861 632T801 660T735 683T670 703T603 720T541 737Q383 781 315 813Q115 909 115 1092Q115
1257 251 1359T596 1462Q788 1462 922 1360T1085 1083L1010 1063Q987 1213 874 1301T596 1389Q419 1389 307 1310T195 1092Q195 1062 204 1035T225 986T262 944T306 909T362 879T421 855T488 833T553 814T621 795Q800 748 883 707Q1110 595 1110 375Q1110 200 970
86T604 -29Q379 -29 242 90T88 389Z" />
<glyph unicode="t" glyph-name="t" horiz-adv-x="1198" d="M57 1358V1434H1141V1358H639V0H559V1358H57Z" />
<glyph unicode="u" glyph-name="u" horiz-adv-x="1454" d="M162 573V1434H240V565Q240 308 363 177T727 45Q969 45 1091 176T1214 565V1434H1294V573Q1294 278 1150 124T727 -31Q448 -31 305 123T162 573Z" />
<glyph unicode="v" glyph-name="v" horiz-adv-x="1468" d="M57 1434H139L651 289Q665 258 685 208T719 125T733 92H735Q736 92 749 125T782 208T817 289L1329 1434H1413L770 0H700L57 1434Z" />
<glyph unicode="w" glyph-name="w" horiz-adv-x="1933" d="M59 1434H139L535 319Q553 268 568 218T590 145T598 123H600Q601 123 606 145T624 217T655 319L938 1212H995L1280 319Q1296 268 1309 218T1328 145T1335 123H1337Q1338 123 1344 145T1367 218T1399 319L1796
1434H1874L1366 0H1305L1055 801Q1023 902 1002 978T974 1077L969 1100H967L961 1076Q955 1053 934 977T881 801L629 0H569L59 1434Z" />
<glyph unicode="x" glyph-name="x" horiz-adv-x="1347" d="M39 0L623 750L92 1434H190L578 932Q587 919 611 885T653 825T672 799H674Q675 799 693 825T736 885T770 932L1155 1434H1255L725 750L1309 0H1208L764 571Q744 597 722 629T687 678T674 696H672Q671
696 660 679T626 629T584 571L139 0H39Z" />
<glyph unicode="y" glyph-name="y" horiz-adv-x="1273" d="M39 1434H133L543 924Q558 907 581 877T620 826T637 805H639Q640 805 655 825T695 876T733 924L1141 1434H1235L676 739V0H598V739L39 1434Z" />
<glyph unicode="z" glyph-name="z" horiz-adv-x="1390" d="M123 0V72L1081 1255Q1097 1275 1121 1300T1162 1341T1178 1358L1176 1360H1172Q1168 1360 1162 1360T1145 1359T1121 1359T1091 1359T1053 1358T1008 1358H143V1434H1268V1362L313 180Q289 149 265 123T230
86L219 74L221 72H230Q238 73 253 73T287 74T333 75T387 76H1268V0H123Z" />
<glyph unicode="{" glyph-name="braceleft" horiz-adv-x="733" d="M207 721Q212 723 221 727T254 752T295 805T327 898T342 1036V1321Q342 1441 367 1526T441 1660T551 1731T694 1753V1677Q420 1677 420 1343V1044Q420 796 307 721Q317 716 326 709T354 677T386
620T409 528T420 395V98Q420 -236 694 -236V-311Q613 -311 551 -289T441 -219T368 -85T342 121V406Q342 483 328 544T295 636T255 689T221 716L207 721Z" />
<glyph unicode="|" glyph-name="bar" horiz-adv-x="485" d="M207 -152V1587H281V-152H207Z" />
<glyph unicode="}" glyph-name="braceright" horiz-adv-x="733" d="M39 -236V-311Q120 -311 182 -289T292 -219T365 -85T391 121V406Q391 483 405 544T438 636T478 689T512 716L526 721Q521 723 512 727T479 752T438 805T406 898T391 1036V1321Q391 1441 366 1526T292
1660T182 1731T39 1753V1677Q313 1677 313 1343V1044Q313 796 426 721Q416 716 407 709T379 677T347 620T324 528T313 395V98Q313 -236 39 -236Z" />
<glyph unicode="~" glyph-name="asciitilde" horiz-adv-x="1429" d="M319 668Q333 748 393 796T543 844Q588 844 629 827T701 786T761 738T824 697T891 680Q955 680 996 716T1042 809L1114 788Q1102 709 1043 662T895 614Q842 614 792 639T708 695T630 750T545
776Q480 776 440 741T391 649L319 668Z" />
</font>
</defs>
</svg>
